<?xml version="1.0" standalone="no"?>
<!DOCTYPE svg PUBLIC "-//W3C//DTD SVG 20010904//EN"
 "http://www.w3.org/TR/2001/REC-SVG-20010904/DTD/svg10.dtd">
<svg version="1.0" xmlns="http://www.w3.org/2000/svg"
 width="260.000000pt" height="260.000000pt" viewBox="0 0 260.000000 260.000000"
 preserveAspectRatio="xMidYMid meet">
<metadata>
Created by potrace 1.14, written by Peter Selinger 2001-2017
</metadata>
<g transform="translate(0.000000,260.000000) scale(0.100000,-0.100000)"
fill="#000000" stroke="none">
<path d="M832 2503 c-45 -22 -66 -57 -68 -112 l-2 -45 -123 -31 c-169 -43
-169 -43 -169 -114 l0 -57 -47 -20 -48 -20 -2 -339 c-1 -405 1 -365 -21 -365
-41 0 -51 -36 -31 -114 7 -27 19 -47 31 -53 19 -8 20 -18 20 -168 0 -197 2
-182 -21 -188 -16 -4 -18 -13 -17 -58 1 -47 4 -54 21 -54 18 0 20 -7 21 -65 1
-76 7 -89 51 -110 l31 -15 -49 -65 c-27 -36 -55 -72 -62 -80 -7 -8 -61 -80
-121 -160 -60 -80 -118 -155 -128 -167 l-20 -21 1216 0 c669 0 1216 2 1216 5
0 5 -80 112 -299 398 l-69 90 41 20 42 20 0 65 c1 73 8 92 30 83 12 -4 15 6
15 55 0 55 -2 61 -22 64 -21 3 -22 6 -21 171 0 144 3 170 17 180 23 17 45 106
34 136 -4 12 -17 25 -28 28 -11 3 -20 10 -21 17 -1 6 -2 164 -2 351 l-2 339
-47 20 -48 20 0 57 c0 72 0 72 -170 114 l-125 32 3 30 c4 41 -21 98 -52 118
-86 56 -199 0 -205 -103 -1 -9 -15 -10 -53 -5 -70 9 -389 9 -454 0 l-52 -7 -6
35 c-6 32 -54 94 -73 95 -4 1 -24 3 -43 5 -21 3 -48 -1 -68 -12z"/>
</g>
</svg>
